<svg fill="none" height="512" viewBox="0 0 24 24" width="512" xmlns="http://www.w3.org/2000/svg"><g clip-rule="evenodd" fill-rule="evenodd"><path d="m8.62238 2.06908c-.22946-.08531-.47888-.13229-.7437-.13229-1.31502 0-2.25 1.15827-2.25 2.41667v7.42714l-1.50018-1.7386-.01037-.0118c-.88372-.98186-2.35254-.98186-3.236261 0-.8359929.9289-.8424419 2.4015-.019347 3.3388l2.418118 3.1039 1.40608 1.9114c1.40903 2.4317 3.86094 3.9414 6.53458 3.9414h.1574c4.3526 0 7.75-3.8943 7.75-8.5278v-7.22222c0-1.2584-.935-2.41666-2.25-2.41666-.2667 0-.5177.04762-.7485.13405v4.28162c0 .13807-.1119.25-.25.25-.138 0-.25-.11193-.25-.25v-5.73764c-.4006-.53864-1.0168-.90026-1.7515-.90026-.2679 0-.52.04808-.7517.13527v7.22237c0 .13807-.1119.25-.25.25s-.25-.11193-.25-.25v-7.57282c-.4007-.53625-1.0155-.895926-1.7483-.895926-.7377 0-1.35578.364476-1.75632.906656v8.49956c0 .1381-.11193.25-.25.25s-.25-.1119-.25-.25z" fill="#ffcc80"/><path d="m19.0653 12.4649c-.645-1.2898-2.4856-1.2898-3.1305 0l-3.882 7.764c-.5818 1.1635.2643 2.5326 1.5652 2.5326h7.764c1.3009 0 2.147-1.3691 1.5652-2.5326z" fill="#ffc107"/><path d="m17.5 11.4976v11.2639h-3.882c-1.3009 0-2.147-1.3691-1.5652-2.5326l3.882-7.764c.3224-.6449.9438-.9673 1.5652-.9673z" fill="#dcab17"/><path d="m18.25 15.5115c0-.4142-.3358-.75-.75-.75s-.75.3358-.75.75v2c0 .4142.3358.75.75.75s.75-.3358.75-.75zm0 4c0-.4142-.3358-.75-.75-.75s-.75.3358-.75.75v.5c0 .4142.3358.75.75.75s.75-.3358.75-.75z" fill="#354d58"/><path d="m17.5 18.7615v2c-.4142 0-.75-.3358-.75-.75v-.5c0-.4142.3358-.75.75-.75zm0-4v3.5c-.4142 0-.75-.3358-.75-.75v-2c0-.4142.3358-.75.75-.75z" fill="#273135"/><path d="m11 .813862v21.493238c-2.58717-.0808-4.94322-1.5735-6.31328-3.9379l-1.40608-1.9115-2.418118-3.1039c-.8230949-.9372-.8166459-2.4098.019347-3.3387.883721-.9819 2.352541-.9819 3.236261 0l.01037.0118 1.50018 1.7386v-7.42717c0-1.25841.93498-2.41667 2.25-2.41667.26482 0 .51424.04697.7437.13228v8.16286c0 .1381.11193.25.25.25s.25-.1119.25-.25v-8.4996c.40054-.54217 1.01862-.906653 1.75632-.906653.0408 0 .0812.001115.1213.003315z" fill="#febc5a"/></g></svg>