<?xml version="1.0" encoding="iso-8859-1"?>
<!-- Generator: Adobe Illustrator 21.0.0, SVG Export Plug-In . SVG Version: 6.00 Build 0)  -->
<svg version="1.1" id="Capa_1" xmlns="http://www.w3.org/2000/svg" xmlns:xlink="http://www.w3.org/1999/xlink" x="0px" y="0px"
	 viewBox="0 0 512 512" style="enable-background:new 0 0 512 512;" xml:space="preserve">
<path style="fill:#FFDE55;" d="M18.386,431.639L235.115,56.252c9.281-16.076,32.486-16.076,41.768,0l216.729,375.387
	c9.281,16.076-2.32,36.172-20.884,36.172H39.27C20.706,467.811,9.105,447.715,18.386,431.639z"/>
<path style="fill:#DDB100;" d="M472.729,482.904H39.27c-30.171,0-49.059-32.649-33.955-58.811l0,0L222.044,48.705
	c15.087-26.129,52.803-26.164,67.909,0l216.73,375.386c7.087,12.276,7.087,26.933-0.001,39.208
	C499.596,475.575,486.903,482.904,472.729,482.904z M31.457,439.184c-3.476,6.022,0.87,13.533,7.813,13.533h433.459
	c4.7,0,7.028-3.154,7.812-4.511c0.783-1.356,2.352-4.951,0.001-9.022L263.812,63.799c-3.47-6.011-12.148-6.024-15.625,0
	L31.457,439.184L31.457,439.184z"/>
<path style="fill:#FFD422;" d="M472.728,467.811H256V44.196c8.12,0,16.24,4.025,20.879,12.054l216.738,375.388
	C502.894,447.716,491.293,467.811,472.728,467.811z"/>
<path style="fill:#CC9D02;" d="M506.687,424.09L289.959,48.702c-7.094-12.276-19.782-19.601-33.96-19.601v30.186
	c1.57,0,5.464,0.443,7.808,4.508l216.738,375.388c2.344,4.075,0.775,7.667,0,9.026c-0.785,1.358-3.119,4.508-7.818,4.508H256v30.186
	h216.728c14.178,0,26.866-7.325,33.96-19.601C513.771,451.026,513.771,436.367,506.687,424.09z"/>
<g>
	<path style="fill:#DDB100;" d="M214.673,293.02c0.688,19.172,16.253,34.19,35.439,34.19h11.776
		c19.184,0,34.751-15.018,35.439-34.19l3.741-104.322c0.686-19.111-14.579-35.007-33.771-35.007h-22.59
		c-19.122,0-34.461,15.825-33.771,35.006L214.673,293.02z"/>
	<path style="fill:#DDB100;" d="M256,342.741c-26.322,0-47.736,21.414-47.736,47.736s21.414,47.736,47.736,47.736
		s47.736-21.414,47.736-47.736S282.322,342.741,256,342.741z"/>
</g>
<g>
	<path style="fill:#CC9D02;" d="M301.068,188.697l-3.743,104.324c-0.684,19.168-16.25,34.191-35.439,34.191H256V153.691h11.3
		C286.374,153.692,301.758,169.486,301.068,188.697z"/>
	<path style="fill:#CC9D02;" d="M303.735,390.473c0,26.323-21.412,47.735-47.735,47.735v-95.469
		C282.323,342.738,303.735,364.151,303.735,390.473z"/>
</g>
<g>
</g>
<g>
</g>
<g>
</g>
<g>
</g>
<g>
</g>
<g>
</g>
<g>
</g>
<g>
</g>
<g>
</g>
<g>
</g>
<g>
</g>
<g>
</g>
<g>
</g>
<g>
</g>
<g>
</g>
</svg>
